<svg xmlns="http://www.w3.org/2000/svg" viewBox="0 0 310.29 125.94"><defs><style>.cls-1,.cls-2{fill:#f27457;}.cls-1{opacity:0.7;}.cls-3{fill:#f2f2f2;}</style></defs><g id="Layer_2" data-name="Layer 2"><g id="Layer_1-2" data-name="Layer 1"><path class="cls-1" d="M50.13,48C46.25,38.37,34.2,45.9,26.72,45.3,13.18,46.9.37,38.06,4.8,23.37,5.76,8,20.52,2.42,34.06,3.22,51.49,2.81,68.93,2,86.39,2c13.21.82,31.89-5.12,39.79,9.09,2.79,6,2.3,15.64-2.54,20.56-12.34,13.49-28.22,2-35.8,11.65-2.61,9.42.33,20.09-.46,29.92-1.42,14.72,9.14,38.12-9.32,45C36.94,126.84,52,71.7,50.13,48Z"/><path class="cls-2" d="M46.22,46.6c-3.88-9.67-15.93-2.14-23.41-2.74C9.27,45.46-3.54,36.62.89,21.93,1.85,6.59,16.61,1,30.15,1.79,47.58,1.37,65,.52,82.48.55c13.21.82,31.9-5.12,39.79,9.09,2.8,6,2.3,15.64-2.54,20.56-12.34,13.49-28.22,2-35.8,11.65-2.61,9.42.33,20.09-.46,29.93-1.42,14.71,9.14,38.11-9.32,45C33,125.4,48,70.26,46.22,46.6Z"/><path class="cls-1" d="M166.79,89.3c-19.34-1.18-16.55,26-33.32,28.44C99,116.56,106.58,98.68,117.12,75c7.19-17.68,13.41-35.24,20.51-53,3.12-7.79,9.75-15.4,18.1-17.57C178.08.12,184.8,27.71,192.86,43c9.13,17.8,17.8,36,24.57,54.82,7.72,16.72,3.39,19.77-13.71,22.8C165.64,123.22,186.92,92.27,166.79,89.3Zm-1.83-31c1.2-6.31-6.74-10.84-10.21-4.79C151.6,61.52,163.49,70.15,165,58.25Z"/><path class="cls-2" d="M162.88,87.86c-19.34-1.18-16.55,26-33.32,28.44-34.5-1.18-26.89-19.06-16.35-42.73,7.2-17.68,13.41-35.24,20.51-53,3.12-7.78,9.75-15.4,18.1-17.57C174.17-1.32,180.89,26.27,189,41.54c9.13,17.8,17.8,35.95,24.58,54.82,7.71,16.72,3.38,19.77-13.72,22.8C161.73,121.78,183,90.83,162.88,87.86Zm-1.83-31c1.2-6.31-6.74-10.84-10.21-4.79C147.69,60.08,159.58,68.71,161.05,56.81Z"/><path class="cls-1" d="M310,45.81c2.61,30.51-11.31,36.69-38.59,41.09-3.36.57-7.76,1.81-8.44,5.76,1.75,10.26,3.38,22.92-6.58,29.91-34.64,15.51-31-26.27-33.31-48-1-18.09-1.61-36.34-.05-54.38C228,.39,249.26,4.27,264.42,5,297.11,6.17,311.55,8,310,45.81Zm-45.38,1.9c-.06-4.05,2.82-12-3.24-12.52-7.05.36-5,16.16-2,19.61C263.47,57.4,264.42,50.3,264.6,47.71Z"/><path class="cls-2" d="M306.07,44.37c2.61,30.51-11.31,36.69-38.59,41.09-3.36.57-7.76,1.81-8.44,5.76,1.75,10.26,3.38,22.92-6.58,29.91-34.64,15.51-31-26.27-33.31-48-1-18.08-1.61-36.34-.05-54.37,5-19.77,26.25-15.88,41.41-15.15C293.2,4.73,307.64,6.6,306.07,44.37Zm-45.38,1.9c-.06-4.05,2.82-12-3.24-12.52-7,.36-5,16.16-2,19.61C259.56,56,260.51,48.87,260.69,46.27Z"/><path class="cls-3" d="M105.6,7.15A8.82,8.82,0,0,1,114,11.09a11.1,11.1,0,0,1,1.45,9.61c-.59,1.85,2.31,2.64,2.89.8C121,13.29,114.79,3.14,105.6,4.15a1.55,1.55,0,0,0-1.5,1.5,1.5,1.5,0,0,0,1.5,1.5Z"/><path class="cls-3" d="M86.06,33.62a14.76,14.76,0,0,0-9.56,8,1.55,1.55,0,0,0,.54,2,1.51,1.51,0,0,0,2-.54,13.44,13.44,0,0,1,1.46-2.45c-.13.17,0,0,0-.06l.21-.25c.15-.18.31-.36.47-.53.33-.34.68-.67,1-1l.25-.21c.33-.27-.23.17.11-.08l.53-.38c.4-.27.81-.51,1.23-.74l.58-.28.35-.16c-.3.13.09,0,.13,0a12.64,12.64,0,0,1,1.36-.43,1.53,1.53,0,0,0,1-1.85,1.54,1.54,0,0,0-1.85-1.05Z"/><path class="cls-3" d="M79.47,99.32a45.53,45.53,0,0,1-4,11,1.54,1.54,0,0,0,.54,2,1.52,1.52,0,0,0,2-.54,48.08,48.08,0,0,0,4.28-11.67,1.54,1.54,0,0,0-1-1.85,1.52,1.52,0,0,0-1.84,1Z"/><path class="cls-3" d="M75.65,49.32v.21a1.27,1.27,0,0,0,.13.58,1.11,1.11,0,0,0,.31.48,1.23,1.23,0,0,0,.49.32,1.11,1.11,0,0,0,.57.12l.4-.05a1.39,1.39,0,0,0,.66-.39l.24-.3a1.51,1.51,0,0,0,.2-.76v-.21a1.06,1.06,0,0,0-.13-.58,1.36,1.36,0,0,0-.79-.79,1.06,1.06,0,0,0-.58-.13l-.39,0a1.47,1.47,0,0,0-.67.39l-.23.3a1.45,1.45,0,0,0-.21.76Z"/><path class="cls-3" d="M156.16,8.3c4-.09,7.69,2.06,10.59,4.71a29.41,29.41,0,0,1,7.1,9.89,1.51,1.51,0,0,0,2.06.54,1.53,1.53,0,0,0,.53-2.05,31.29,31.29,0,0,0-8-10.89c-3.41-3-7.64-5.3-12.28-5.2-1.93,0-1.94,3,0,3Z"/><path class="cls-3" d="M180.11,29.34l-.22,0a1.27,1.27,0,0,0-.58.13,1.24,1.24,0,0,0-.48.31,1.11,1.11,0,0,0-.31.49,1.14,1.14,0,0,0-.13.57l.05.4a1.47,1.47,0,0,0,.39.66l.3.24a1.47,1.47,0,0,0,.76.2l.22,0a1.11,1.11,0,0,0,.57-.13,1.21,1.21,0,0,0,.49-.31,1.24,1.24,0,0,0,.31-.48,1.29,1.29,0,0,0,.13-.58l-.06-.4a1.45,1.45,0,0,0-.38-.66l-.31-.24a1.5,1.5,0,0,0-.75-.2Z"/><path class="cls-3" d="M182.12,40.26l1.26,2a1.64,1.64,0,0,0,.9.69,1.11,1.11,0,0,0,.6,0,1,1,0,0,0,.55-.17,1.51,1.51,0,0,0,.54-2.06l-1.26-2a1.5,1.5,0,0,0-.89-.69,1.22,1.22,0,0,0-.6,0,1.12,1.12,0,0,0-.56.18,1.55,1.55,0,0,0-.69.9,1.59,1.59,0,0,0,.15,1.15Z"/><path class="cls-3" d="M193.36,62.33a36.34,36.34,0,0,0,2.48,6.38,1.51,1.51,0,0,0,2,.54,1.54,1.54,0,0,0,.54-2c-.24-.48-.46-1-.68-1.44-.06-.14-.13-.28-.18-.42l.06.15-.08-.21-.3-.73c-.38-1-.71-2-1-3a1.5,1.5,0,0,0-2.89.8Z"/><path class="cls-3" d="M206,92.84,208,97a1.5,1.5,0,0,0,2.75-.36,1.73,1.73,0,0,0-.15-1.16l-2-4.1a1.5,1.5,0,0,0-.89-.69,1.5,1.5,0,0,0-1.85,1,1.69,1.69,0,0,0,.15,1.15Z"/><path class="cls-3" d="M163.6,52.77a1.5,1.5,0,0,0,0-3,1.5,1.5,0,0,0,0,3Z"/><path class="cls-3" d="M144.63,94.43a34.82,34.82,0,0,1,4.84-4.72,1.52,1.52,0,0,0,.44-1.06,1.54,1.54,0,0,0-.44-1.06,1.47,1.47,0,0,0-1.06-.44,1.68,1.68,0,0,0-1.06.44,33.75,33.75,0,0,0-4.84,4.72,1.61,1.61,0,0,0-.44,1.06,1.5,1.5,0,0,0,.44,1.06,1.52,1.52,0,0,0,2.12,0Z"/><path class="cls-3" d="M273.47,11.75c7.14-.4,15.52,1,19.77,7.42,1.06,1.6,3.66.1,2.59-1.51-4.86-7.33-14.07-9.38-22.36-8.91-1.92.11-1.93,3.11,0,3Z"/><path class="cls-3" d="M298,26.24c.36,1.4.66,2.81.89,4.24.13.77.2,1.23.28,1.91s.15,1.44.2,2.16a1.53,1.53,0,0,0,1.5,1.5,1.51,1.51,0,0,0,1.5-1.5,54.05,54.05,0,0,0-1.47-9.11,1.5,1.5,0,1,0-2.9.8Z"/><path class="cls-3" d="M298.58,64.85a42,42,0,0,1-26,13c-1.9.2-1.92,3.21,0,3A45.15,45.15,0,0,0,300.7,67c1.32-1.41-.8-3.53-2.12-2.12Z"/><path class="cls-3" d="M263.07,33.41h.13l-.4-.05a2,2,0,0,1,.42.11l-.36-.15a1.9,1.9,0,0,1,.39.23l-.3-.24a1.77,1.77,0,0,1,.3.31l-.23-.31a2,2,0,0,1,.21.37l-.15-.36s0,.07,0,.11a1.26,1.26,0,0,0,.27.51,1,1,0,0,0,.42.38,1.12,1.12,0,0,0,.56.18,1.07,1.07,0,0,0,.59,0l.36-.15a1.4,1.4,0,0,0,.54-.54l.15-.35a1.55,1.55,0,0,0,0-.8,5.89,5.89,0,0,0-.24-.58l-.14-.22a4.31,4.31,0,0,0-.39-.48,3.17,3.17,0,0,0-.49-.4,2.85,2.85,0,0,0-.78-.39,1.36,1.36,0,0,0-.25-.07,1.77,1.77,0,0,0-.32-.05l-.33,0a1.72,1.72,0,0,0-1.06.44,1.24,1.24,0,0,0-.31.48,1.27,1.27,0,0,0-.13.58l.06.4A1.57,1.57,0,0,0,262,33l.31.24a1.5,1.5,0,0,0,.75.2Z"/><path class="cls-3" d="M255.06,106.9c-.08.32-.18.64-.29.95s-.12.35-.19.52a1.45,1.45,0,0,0-.08.21s.13-.31,0,0a13.62,13.62,0,0,1-1,1.8,5.72,5.72,0,0,1-.57.82c.07-.08.14-.18,0,0l-.18.21c-.1.13-.21.26-.32.38a14,14,0,0,1-1.53,1.45,1.5,1.5,0,0,0,0,2.12,1.54,1.54,0,0,0,2.12,0,14.74,14.74,0,0,0,4.89-7.63,1.51,1.51,0,0,0-1-1.84,1.53,1.53,0,0,0-1.85,1.05Z"/></g></g></svg>